<?xml version="1.0" encoding="UTF-8" standalone="no"?>
<!-- Generator: Adobe Illustrator 16.0.0, SVG Export Plug-In . SVG Version: 6.00 Build 0)  -->

<svg
   xmlns:dc="http://purl.org/dc/elements/1.1/"
   xmlns:cc="http://creativecommons.org/ns#"
   xmlns:rdf="http://www.w3.org/1999/02/22-rdf-syntax-ns#"
   xmlns:svg="http://www.w3.org/2000/svg"
   xmlns="http://www.w3.org/2000/svg"
   xmlns:sodipodi="http://sodipodi.sourceforge.net/DTD/sodipodi-0.dtd"
   xmlns:inkscape="http://www.inkscape.org/namespaces/inkscape"
   version="1.1"
   id="Capa_1"
   x="0px"
   y="0px"
   width="512"
   height="288"
   viewBox="0 0 512 288"
   xml:space="preserve"
   sodipodi:docname="clouds.svg"
   inkscape:version="0.92.3 (2405546, 2018-03-11)"><metadata
   id="metadata41"><rdf:RDF><cc:Work
       rdf:about=""><dc:format>image/svg+xml</dc:format><dc:type
         rdf:resource="http://purl.org/dc/dcmitype/StillImage" /><dc:title /></cc:Work></rdf:RDF></metadata><defs
   id="defs39">
	
</defs><sodipodi:namedview
   pagecolor="#ffffff"
   bordercolor="#666666"
   borderopacity="1"
   objecttolerance="10"
   gridtolerance="10"
   guidetolerance="10"
   inkscape:pageopacity="0"
   inkscape:pageshadow="2"
   inkscape:window-width="1319"
   inkscape:window-height="713"
   id="namedview37"
   showgrid="false"
   inkscape:zoom="1.3037281"
   inkscape:cx="227.95406"
   inkscape:cy="102.44478"
   inkscape:window-x="47"
   inkscape:window-y="27"
   inkscape:window-maximized="1"
   inkscape:current-layer="Capa_1"
   fit-margin-top="0"
   fit-margin-left="0"
   fit-margin-right="0"
   fit-margin-bottom="0" />
<path
   inkscape:connector-curvature="0"
   style="fill:#ffffff"
   id="path2"
   d="m 512,223.5 c 0,35.344 -28.656,64 -64,64 V 288 H 176 c -44.188,0 -80,-35.812 -80,-80 0,-38.75 27.563,-71.063 64.156,-78.406 0,-0.531 -0.156,-1.031 -0.156,-1.594 0,-53.031 42.969,-96 96,-96 37.438,0 69.5,21.625 85.344,52.875 C 349.719,81.937 358.594,80 368,80 c 43.844,0 79.344,35.25 79.906,79 H 448 v 0.5 c 35.344,0 64,28.656 64,64 z M 129.906,105.938 C 137.312,63.375 166.062,28.344 204.469,11.313 191.188,4.219 176.156,0 160,0 106.969,0 64,42.969 64,96 c 0,0.563 0.156,1.063 0.156,1.594 C 27.563,104.938 0,137.25 0,176 0,218.469 33.188,252.844 74.938,255.5 68.125,241.031 64,225.031 64,208 64,163.438 90.594,123.75 129.906,105.938 Z" />
<g
   id="g6"
   transform="translate(0,-112)">
</g>
<g
   id="g8"
   transform="translate(0,-112)">
</g>
<g
   id="g10"
   transform="translate(0,-112)">
</g>
<g
   id="g12"
   transform="translate(0,-112)">
</g>
<g
   id="g14"
   transform="translate(0,-112)">
</g>
<g
   id="g16"
   transform="translate(0,-112)">
</g>
<g
   id="g18"
   transform="translate(0,-112)">
</g>
<g
   id="g20"
   transform="translate(0,-112)">
</g>
<g
   id="g22"
   transform="translate(0,-112)">
</g>
<g
   id="g24"
   transform="translate(0,-112)">
</g>
<g
   id="g26"
   transform="translate(0,-112)">
</g>
<g
   id="g28"
   transform="translate(0,-112)">
</g>
<g
   id="g30"
   transform="translate(0,-112)">
</g>
<g
   id="g32"
   transform="translate(0,-112)">
</g>
<g
   id="g34"
   transform="translate(0,-112)">
</g>
</svg>