<?xml version="1.0" encoding="UTF-8" standalone="no"?>
<svg
   xmlns:dc="http://purl.org/dc/elements/1.1/"
   xmlns:cc="http://creativecommons.org/ns#"
   xmlns:rdf="http://www.w3.org/1999/02/22-rdf-syntax-ns#"
   xmlns:svg="http://www.w3.org/2000/svg"
   xmlns="http://www.w3.org/2000/svg"
   xmlns:sodipodi="http://sodipodi.sourceforge.net/DTD/sodipodi-0.dtd"
   xmlns:inkscape="http://www.inkscape.org/namespaces/inkscape"
   version="1.0"
   width="1280.000000pt"
   height="1116.000000pt"
   viewBox="0 0 1280.000000 1116.000000"
   preserveAspectRatio="xMidYMid meet"
   id="svg80"
   sodipodi:docname="logo.svg"
   inkscape:version="0.92.3 (2405546, 2018-03-11)">
  <defs
     id="defs84" />
  <sodipodi:namedview
     pagecolor="#ffffff"
     bordercolor="#666666"
     borderopacity="1"
     objecttolerance="10"
     gridtolerance="10"
     guidetolerance="10"
     inkscape:pageopacity="0"
     inkscape:pageshadow="2"
     inkscape:window-width="1319"
     inkscape:window-height="713"
     id="namedview82"
     showgrid="false"
     inkscape:zoom="0.15860215"
     inkscape:cx="853.33333"
     inkscape:cy="744"
     inkscape:window-x="47"
     inkscape:window-y="27"
     inkscape:window-maximized="1"
     inkscape:current-layer="svg80" />
  <metadata
     id="metadata2">
Created by potrace 1.15, written by Peter Selinger 2001-2017
<rdf:RDF>
  <cc:Work
     rdf:about="">
    <dc:format>image/svg+xml</dc:format>
    <dc:type
       rdf:resource="http://purl.org/dc/dcmitype/StillImage" />
  </cc:Work>
</rdf:RDF>
</metadata>
  <g
     transform="translate(0.000000,1116.000000) scale(0.100000,-0.100000)"
     fill="#000000"
     stroke="none"
     id="g78"
     style="fill:#ffffff">
    <path
       d="M6321 11085 c-35 -85 -37 -95 -16 -135 39 -76 118 -62 132 23 11 68 -37 187 -75 187 -5 0 -23 -34 -41 -75z"
       id="path4"
       style="fill:#ffffff" />
    <path
       d="M2276 10964 c-37 -81 -41 -122 -16 -162 56 -91 148 -37 133 78 -8 64 -51 140 -79 140 -7 0 -24 -25 -38 -56z"
       id="path6"
       style="fill:#ffffff" />
    <path
       d="M2957 10942 c-21 -42 -37 -88 -37 -102 2 -30 29 -79 52 -94 24 -15 70 4 85 34 17 34 16 123 -2 167 -16 37 -43 73 -54 73 -3 -1 -23 -35 -44 -78z"
       id="path8"
       style="fill:#ffffff" />
    <path
       d="M8445 10957 c-46 -83 -48 -136 -6 -178 36 -35 52 -36 88 -5 26 22 28 30 27 93 0 56 -5 76 -27 111 -15 23 -31 42 -37 42 -5 0 -25 -29 -45 -63z"
       id="path10"
       style="fill:#ffffff" />
    <path
       d="M9308 10655 c-3 -6 -9 -26 -13 -45 -4 -19 -13 -48 -20 -65 -38 -85 -45 -112 -45 -177 0 -80 18 -129 55 -154 60 -39 115 23 115 129 0 52 -24 150 -51 202 -5 11 -16 43 -23 70 -6 27 -15 45 -18 40z"
       id="path12"
       style="fill:#ffffff" />
    <path
       d="M4904 10488 c-6 -7 -20 -43 -33 -81 -20 -58 -22 -71 -11 -98 33 -79 81 -101 119 -53 26 33 28 111 6 159 -23 48 -69 89 -81 73z"
       id="path14"
       style="fill:#ffffff" />
    <path
       d="M853 10338 c-5 -7 -20 -41 -33 -75 -25 -71 -22 -97 16 -142 58 -69 131 -17 119 83 -7 57 -17 80 -53 119 -29 30 -35 32 -49 15z"
       id="path16"
       style="fill:#ffffff" />
    <path
       d="M6516 10167 c-20 -40 -36 -83 -36 -95 0 -60 49 -110 96 -98 30 8 54 57 54 114 0 40 -46 143 -66 149 -6 2 -28 -29 -48 -70z"
       id="path18"
       style="fill:#ffffff" />
    <path
       d="M2470 10033 c-42 -74 -47 -118 -20 -161 24 -38 40 -47 76 -38 30 8 54 58 54 113 0 46 -43 143 -64 143 -8 0 -29 -26 -46 -57z"
       id="path20"
       style="fill:#ffffff" />
    <path
       d="M7767 10084 c-9 -9 -73 -20 -197 -34 -52 -6 -106 -12 -120 -15 -49 -7 -326 -47 -430 -60 -280 -37 -623 -133 -705 -197 -48 -37 -32 -67 87 -161 95 -76 289 -329 361 -472 38 -77 38 -75 -6 -176 -31 -71 17 -149 90 -149 92 0 303 -146 703 -486 165 -141 463 -437 520 -518 28 -38 49 -55 100 -78 36 -16 74 -34 84 -39 10 -6 53 -29 95 -52 127 -68 196 -113 199 -130 4 -18 -79 -145 -230 -355 -51 -70 -99 -143 -109 -162 l-17 -35 -79 0 c-71 0 -83 -3 -116 -28 -20 -15 -53 -57 -73 -94 -21 -36 -58 -92 -84 -124 -26 -33 -57 -85 -68 -117 -12 -32 -42 -82 -67 -111 -25 -29 -50 -62 -56 -72 -6 -12 -20 -19 -39 -19 -78 0 -103 -39 -185 -285 -66 -195 -71 -205 -107 -205 -41 0 -123 46 -154 87 -82 108 -71 224 31 310 25 20 48 45 51 56 9 27 -14 47 -54 47 -31 0 -44 -9 -92 -57 -65 -67 -90 -115 -90 -170 0 -22 -3 -42 -6 -46 -7 -6 -133 77 -151 100 -10 13 -4 26 31 77 143 202 203 411 213 746 4 170 2 211 -16 320 -66 380 -194 680 -457 1062 -489 714 -844 1059 -1174 1144 -86 22 -226 22 -315 -1 -75 -19 -254 -92 -320 -130 -46 -26 -361 -187 -720 -368 -382 -193 -540 -295 -709 -462 -217 -214 -350 -441 -418 -712 -19 -76 -22 -116 -23 -288 0 -221 13 -338 51 -463 37 -124 40 -169 15 -224 -12 -26 -21 -67 -21 -93 0 -38 5 -52 30 -77 31 -30 38 -31 96 -13 17 5 28 -3 57 -42 67 -89 107 -138 145 -178 21 -22 58 -65 83 -95 24 -30 91 -106 149 -168 58 -62 106 -116 108 -121 2 -5 -14 -19 -35 -32 -66 -40 -179 -126 -228 -173 -26 -25 -51 -46 -55 -46 -5 0 -12 17 -15 38 -14 82 -44 142 -71 142 -9 0 -29 -30 -51 -75 -34 -72 -35 -76 -22 -117 11 -32 22 -47 46 -58 18 -8 33 -20 33 -26 0 -6 -18 -39 -40 -75 -62 -99 -137 -250 -154 -311 -9 -30 -23 -63 -30 -73 -15 -21 -29 -9 -295 240 -130 122 -221 191 -261 200 -17 4 -54 1 -81 -5 -50 -12 -51 -12 -86 21 -54 53 -58 65 -58 186 0 137 -6 147 -131 219 -49 29 -105 70 -124 93 -28 32 -43 41 -67 41 -41 0 -86 -38 -107 -91 -22 -55 -14 -87 34 -139 22 -24 42 -51 45 -61 7 -20 -15 -68 -39 -88 -30 -25 -140 -41 -320 -47 -184 -5 -226 -14 -240 -50 -9 -24 15 -65 54 -92 31 -21 42 -23 95 -17 108 13 150 12 150 -5 0 -25 -91 -78 -154 -91 -74 -14 -135 -48 -139 -76 -12 -83 115 -130 221 -83 64 28 137 38 137 17 0 -24 -63 -73 -117 -91 -70 -23 -97 -50 -89 -90 11 -51 57 -90 118 -96 48 -5 52 -7 60 -37 9 -35 41 -63 71 -63 17 0 70 42 203 161 31 27 76 54 113 68 39 14 80 39 115 72 31 28 60 48 66 44 6 -4 10 -51 10 -113 0 -59 7 -152 15 -207 8 -55 15 -125 15 -155 1 -111 26 -205 90 -343 34 -72 71 -142 82 -154 38 -41 115 -66 208 -67 75 -1 91 2 139 27 47 25 57 27 82 16 17 -6 48 -32 70 -58 106 -121 179 -122 507 -6 57 20 110 34 118 31 21 -8 18 -47 -22 -253 -47 -253 -105 -452 -184 -638 -4 -11 -14 -36 -21 -55 -6 -19 -54 -121 -105 -225 -90 -186 -193 -364 -287 -495 -121 -170 -151 -259 -108 -327 61 -97 543 -283 1058 -409 155 -38 190 -51 164 -61 -31 -12 -51 -44 -51 -80 0 -46 13 -84 68 -198 60 -124 121 -267 128 -301 5 -25 0 -34 -34 -61 -23 -19 -45 -49 -56 -76 -20 -54 -28 -57 -156 -57 -87 0 -157 -4 -525 -29 -74 -5 -125 -4 -132 2 -7 5 -13 25 -13 44 0 50 -26 95 -53 91 -27 -4 -34 -45 -17 -101 6 -22 9 -41 6 -44 -3 -3 -52 -11 -110 -19 -251 -33 -406 -84 -464 -154 -7 -8 -30 -49 -51 -90 -61 -117 -163 -201 -311 -255 -25 -9 -54 -21 -65 -25 -51 -21 -225 -71 -333 -96 -73 -16 -122 -44 -122 -69 0 -53 134 -109 340 -144 367 -61 602 -85 1016 -102 415 -17 1094 -1 1094 26 0 9 -46 14 -162 19 -397 17 -837 53 -964 80 -103 22 -124 33 -124 68 0 25 3 28 34 28 19 0 77 -6 128 -14 203 -31 260 -37 448 -46 107 -5 278 -19 380 -31 123 -14 231 -21 323 -20 75 2 181 3 235 4 78 1 628 -7 1107 -18 214 -4 467 -18 454 -25 -8 -4 -147 -10 -309 -14 -341 -7 -548 -19 -606 -36 -35 -10 -48 -9 -77 5 -42 20 -59 13 -107 -41 -27 -31 -31 -43 -27 -72 7 -40 24 -54 94 -81 108 -42 277 -55 703 -55 784 1 2698 23 2827 33 178 15 329 36 389 57 63 21 114 59 114 86 0 20 2 20 293 14 160 -4 423 -11 582 -16 451 -15 980 15 1147 65 77 23 135 55 149 84 8 14 20 31 28 37 9 7 98 14 230 18 325 10 483 30 496 64 16 42 -55 68 -285 106 -500 83 -1365 157 -2127 183 -95 3 -170 9 -168 13 3 4 46 10 97 14 238 17 746 72 847 92 143 29 211 63 211 104 0 30 -55 68 -144 99 -63 22 -98 30 -121 25 -22 -4 -41 -1 -56 10 -29 18 -116 42 -219 60 -41 7 -183 32 -315 55 -240 42 -375 75 -375 92 0 10 186 136 245 167 74 37 311 66 550 67 154 0 163 2 254 33 117 40 225 101 333 185 122 95 128 97 261 97 126 0 187 14 247 55 48 33 66 72 49 107 -24 55 -111 62 -263 23 -115 -30 -191 -39 -231 -27 -61 17 -41 34 160 135 297 149 437 252 573 422 76 93 167 232 198 299 30 65 41 160 25 209 -26 78 -126 135 -303 172 -146 31 -672 120 -808 137 -135 16 -505 16 -640 0 -422 -53 -786 -199 -1004 -403 -73 -68 -125 -138 -174 -234 -33 -67 -53 -88 -96 -104 -15 -6 -123 -18 -240 -26 -116 -8 -282 -26 -368 -40 -86 -14 -187 -25 -223 -25 -60 0 -69 3 -96 29 -16 16 -29 37 -29 46 0 8 -14 52 -31 96 -18 47 -29 89 -25 103 3 12 22 43 42 68 66 85 55 163 -31 213 -73 43 -132 44 -263 1 -61 -20 -114 -36 -116 -36 -22 0 -30 69 -37 309 -5 155 -14 299 -23 346 -8 44 -29 170 -46 280 -18 110 -55 287 -82 394 -27 107 -47 200 -44 208 4 9 24 13 64 13 125 0 217 50 280 151 20 34 54 88 74 120 l37 58 79 -6 c95 -7 157 6 265 55 69 31 82 41 116 93 46 69 81 198 88 330 4 70 1 103 -20 185 -38 144 -111 353 -168 477 -27 59 -49 116 -49 126 0 48 105 111 215 130 218 39 216 38 294 191 34 65 61 130 61 145 0 59 -64 151 -136 196 -41 25 -39 37 14 113 178 256 327 463 339 473 21 17 43 6 199 -92 248 -156 487 -333 629 -466 92 -86 112 -99 157 -99 21 0 46 -4 56 -9 9 -6 50 -19 90 -31 64 -18 286 -105 507 -198 187 -78 495 -247 610 -333 28 -20 66 -40 85 -44 30 -5 41 -2 75 26 81 64 178 120 238 136 37 10 102 16 162 16 85 0 110 -3 166 -26 36 -15 84 -27 107 -27 60 0 70 24 54 132 -11 74 -10 83 9 121 41 79 5 231 -55 232 -30 1 -50 31 -54 80 -1 17 -29 138 -62 268 -33 131 -60 251 -60 267 0 17 10 39 24 53 37 37 50 90 37 144 -7 25 -19 57 -29 71 -33 53 -52 55 -75 6 -12 -24 -23 -34 -35 -32 -15 3 -63 80 -143 233 -119 227 -203 340 -409 545 -91 91 -183 191 -204 223 -48 73 -112 211 -161 345 -55 152 -70 168 -211 231 -168 76 -374 180 -374 189 0 4 16 32 35 62 19 30 35 58 35 62 0 21 -29 3 -72 -43 -39 -42 -50 -50 -70 -43 -48 15 -279 168 -468 308 -245 183 -351 239 -495 262 -115 18 -298 13 -452 -13 -106 -17 -128 -16 -348 21 -88 14 -194 31 -235 37 -41 5 -89 12 -105 15 -17 3 -34 2 -38 -2z m-2604 -7755 c52 -87 236 -321 314 -400 53 -53 82 -91 78 -100 -3 -8 -35 -30 -72 -49 -77 -41 -99 -76 -88 -146 6 -40 4 -44 -22 -57 -34 -18 -362 -80 -395 -75 -20 3 -23 10 -26 48 -5 73 26 227 53 258 l23 27 32 -19 c31 -18 33 -18 58 1 60 45 53 172 -18 320 -27 55 -30 72 -30 157 0 125 4 135 42 99 16 -15 39 -44 51 -64z m1474 -257 c13 -26 34 -60 48 -77 l25 -30 -2 73 c-2 39 -1 72 0 72 9 0 135 -74 147 -87 22 -21 18 -38 -9 -51 -44 -20 -383 -112 -412 -112 -2 0 -9 11 -14 25 -10 27 -62 55 -100 55 -11 0 -20 3 -20 8 1 8 290 172 305 171 6 0 20 -21 32 -47z m-2405 -801 c3 -26 -18 -38 -71 -40 -22 -1 -22 1 15 42 40 43 49 43 56 -2z m1073 -263 c25 -23 -93 -58 -199 -58 l-81 0 -2 28 c-1 15 -1 32 2 38 4 13 265 6 280 -8z m5819 -574 c20 -8 20 -18 1 -37 -15 -16 -175 -43 -197 -34 -7 3 1 6 18 6 17 1 48 13 70 27 58 40 82 48 108 38z m-2214 -209 c0 -23 -31 -34 -152 -54 -207 -36 -409 -43 -1095 -39 -359 1 -653 6 -653 9 0 3 222 9 493 12 555 7 1080 24 1147 37 25 5 70 18 100 29 68 24 160 28 160 6z"
       id="path22"
       style="fill:#ffffff" />
    <path
       d="M3724 9938 c-33 -44 -64 -121 -64 -156 0 -78 71 -121 120 -72 30 30 28 140 -3 194 -24 44 -39 53 -53 34z"
       id="path24"
       style="fill:#ffffff" />
    <path
       d="M4488 9703 c-38 -74 -39 -115 -4 -168 26 -40 74 -32 101 17 22 38 23 59 11 118 -10 45 -44 100 -61 100 -7 0 -28 -30 -47 -67z"
       id="path26"
       style="fill:#ffffff" />
    <path
       d="M434 9556 c-42 -83 -42 -124 1 -170 68 -73 142 22 110 142 -16 62 -39 102 -60 102 -8 0 -31 -33 -51 -74z"
       id="path28"
       style="fill:#ffffff" />
    <path
       d="M11196 9297 c-51 -91 -47 -170 11 -196 54 -25 93 21 93 106 0 50 -26 119 -53 141 -13 11 -20 5 -51 -51z"
       id="path30"
       style="fill:#ffffff" />
    <path
       d="M1286 9200 c-9 -36 -25 -76 -35 -90 -24 -33 -33 -100 -25 -173 5 -46 14 -67 36 -93 45 -51 87 -45 118 17 33 64 19 201 -29 279 -11 19 -21 42 -21 50 -1 8 -7 28 -14 45 l-12 29 -18 -64z"
       id="path32"
       style="fill:#ffffff" />
    <path
       d="M2706 8585 c-39 -72 -45 -118 -21 -165 15 -30 53 -47 79 -37 51 20 66 130 29 203 -38 73 -46 73 -87 -1z"
       id="path34"
       style="fill:#ffffff" />
    <path
       d="M287 8453 c-17 -28 -39 -138 -34 -169 14 -84 106 -123 136 -58 22 48 14 108 -21 160 -34 49 -72 81 -81 67z"
       id="path36"
       style="fill:#ffffff" />
    <path
       d="M1982 6627 c-35 -70 -40 -113 -17 -157 15 -30 53 -47 79 -37 29 11 50 59 50 111 0 55 -37 138 -64 144 -10 2 -27 -20 -48 -61z"
       id="path38"
       style="fill:#ffffff" />
    <path
       d="M11206 5774 c-9 -24 -7 -70 5 -101 10 -27 11 -27 25 -9 17 24 18 52 3 95 -12 34 -24 40 -33 15z"
       id="path40"
       style="fill:#ffffff" />
    <path
       d="M376 5639 c-33 -60 -38 -77 -33 -112 4 -28 14 -49 32 -64 33 -29 47 -29 80 0 20 17 27 34 31 77 5 47 1 63 -23 110 -15 30 -33 55 -38 57 -6 2 -28 -29 -49 -68z"
       id="path42"
       style="fill:#ffffff" />
    <path
       d="M8743 5438 c-76 -121 -86 -166 -48 -225 12 -18 25 -23 56 -23 36 0 41 3 55 35 20 50 17 103 -10 161 -26 57 -41 71 -53 52z"
       id="path44"
       style="fill:#ffffff" />
    <path
       d="M9695 5103 c-35 -77 -40 -111 -21 -156 27 -66 103 -72 127 -10 18 47 6 136 -24 182 -15 23 -34 41 -41 41 -8 0 -26 -26 -41 -57z"
       id="path46"
       style="fill:#ffffff" />
    <path
       d="M10422 5141 c-11 -7 -24 -27 -69 -111 -38 -72 33 -174 98 -140 27 15 42 74 35 134 -8 62 -45 129 -64 117z"
       id="path48"
       style="fill:#ffffff" />
    <path
       d="M1343 4988 c-5 -7 -22 -35 -38 -62 -52 -91 -26 -186 51 -186 42 0 64 37 64 107 -1 76 -53 172 -77 141z"
       id="path50"
       style="fill:#ffffff" />
    <path
       d="M8260 4455 c-37 -86 -43 -119 -30 -159 23 -70 93 -99 125 -50 37 57 28 141 -22 207 -41 53 -51 53 -73 2z"
       id="path52"
       style="fill:#ffffff" />
    <path
       d="M9886 4169 c-32 -59 -37 -78 -33 -111 3 -22 16 -51 28 -64 60 -64 131 9 115 118 -7 44 -43 119 -61 125 -5 1 -27 -29 -49 -68z"
       id="path54"
       style="fill:#ffffff" />
    <path
       d="M2946 4037 c-41 -73 -45 -117 -16 -164 16 -27 26 -33 55 -33 43 0 63 27 71 96 5 41 1 58 -23 104 -15 30 -33 56 -40 58 -6 2 -28 -26 -47 -61z"
       id="path56"
       style="fill:#ffffff" />
    <path
       d="M11115 4026 c-43 -77 -47 -131 -12 -172 29 -34 73 -36 99 -4 26 32 25 130 -2 186 -31 64 -44 62 -85 -10z"
       id="path58"
       style="fill:#ffffff" />
    <path
       d="M7863 3718 c-42 -80 -44 -88 -37 -134 12 -79 70 -108 119 -59 35 34 36 132 2 196 -33 62 -50 61 -84 -3z"
       id="path60"
       style="fill:#ffffff" />
    <path
       d="M8706 3347 c-9 -34 -28 -85 -42 -114 -48 -102 -21 -253 50 -278 31 -11 50 -2 79 37 15 20 19 43 19 114 0 76 -5 100 -30 164 -17 41 -34 87 -37 103 -12 45 -21 39 -39 -26z"
       id="path62"
       style="fill:#ffffff" />
    <path
       d="M1942 3168 c-22 -28 -72 -132 -72 -150 0 -36 31 -86 60 -98 80 -33 120 96 64 208 -27 54 -35 60 -52 40z"
       id="path64"
       style="fill:#ffffff" />
    <path
       d="M12055 2971 c-46 -11 -81 -38 -122 -94 -21 -29 -68 -87 -106 -130 -81 -94 -92 -116 -112 -204 -19 -83 -40 -151 -71 -223 -45 -109 -54 -171 -48 -345 l6 -160 46 -109 c25 -60 58 -124 74 -142 37 -42 106 -65 200 -67 90 -2 124 13 283 127 177 127 257 197 331 292 38 48 102 128 142 178 85 107 96 138 113 309 11 113 10 126 -6 161 -20 41 -153 163 -245 225 -183 123 -397 203 -485 182z"
       id="path66"
       style="fill:#ffffff" />
    <path
       d="M64 2218 c-23 -35 -55 -114 -60 -147 -8 -53 29 -105 78 -109 49 -4 71 28 70 101 -1 74 -66 190 -88 155z"
       id="path68"
       style="fill:#ffffff" />
    <path
       d="M747 2198 c-67 -110 -78 -153 -51 -203 31 -58 96 -67 123 -16 18 33 13 137 -8 180 -30 57 -47 67 -64 39z"
       id="path70"
       style="fill:#ffffff" />
    <path
       d="M3463 2025 c-18 -36 -33 -79 -33 -96 0 -94 93 -136 133 -59 23 44 18 120 -12 179 -30 59 -50 53 -88 -24z"
       id="path72"
       style="fill:#ffffff" />
    <path
       d="M3918 1347 c-63 -25 -81 -37 -53 -37 28 0 155 43 155 52 0 14 -43 7 -102 -15z"
       id="path74"
       style="fill:#ffffff" />
    <path
       d="M1483 1138 c-25 -31 -63 -120 -63 -148 0 -82 71 -129 120 -80 29 29 28 130 -2 190 -25 48 -39 58 -55 38z"
       id="path76"
       style="fill:#ffffff" />
  </g>
</svg>
